<svg xmlns="http://www.w3.org/2000/svg" pointer-events="none" class="leaflet-zoom-animated" width="1976" height="1264" viewBox="-165 -130 1976 1264" style="transform: translate3d(-165px, -130px, 0px);"><g><path class="leaflet-interactive" stroke="black" stroke-opacity="1" stroke-width="2" stroke-linecap="round" stroke-linejoin="round" fill="#fff" fill-opacity="0.2" fill-rule="evenodd" d="M1443 372L1454 369L1457 370L1453 361L1450 361L1447 356L1443 356L1440 353L1440 350L1436 347L1437 346L1425 339L1426 337L1416 333L1414 329L1408 326L1410 319L1408 315L1404 314L1405 313L1401 309L1403 306L1398 298L1393 298L1387 303L1386 306L1381 306L1381 303L1379 301L1367 297L1368 295L1362 286L1348 282L1342 287L1340 291L1333 285L1331 286L1322 282L1317 273L1314 273L1304 265L1300 267L1298 265L1297 261L1300 257L1300 249L1302 248L1299 246L1295 249L1291 248L1285 239L1281 237L1279 238L1273 236L1270 239L1269 237L1266 238L1264 235L1261 235L1260 233L1258 236L1256 236L1256 232L1254 231L1252 233L1245 229L1246 227L1243 222L1240 224L1238 215L1231 213L1230 211L1224 209L1222 206L1216 212L1219 215L1218 216L1225 219L1227 226L1231 229L1233 241L1228 240L1227 237L1211 227L1201 224L1185 215L1184 212L1178 209L1173 203L1172 197L1170 195L1166 196L1163 189L1159 186L1158 183L1149 176L1145 175L1138 167L1131 162L1131 160L1135 157L1130 153L1121 152L1116 149L1115 146L1109 143L1108 140L1103 140L1101 144L1098 145L1095 151L1090 153L1091 155L1088 158L1082 155L1076 156L1073 153L1074 151L1071 150L1069 147L1060 146L1059 156L1056 160L1057 163L1043 175L1035 167L1026 164L1019 158L1007 155L1006 150L989 141L985 136L982 136L980 133L977 134L974 131L958 127L940 127L944 134L940 139L938 161L943 164L942 175L945 179L944 185L945 187L948 188L948 198L940 202L924 196L925 200L922 202L925 205L925 207L916 208L913 210L917 213L916 218L909 225L910 231L912 232L913 240L894 234L887 234L883 238L880 245L881 248L876 250L875 247L873 247L872 249L861 245L859 245L858 247L856 246L842 233L839 234L836 226L827 223L825 220L808 232L805 230L802 233L800 230L798 232L794 230L792 231L790 229L785 232L782 228L780 228L778 225L779 223L774 221L772 218L768 220L765 218L764 219L763 217L752 218L749 221L744 222L730 222L720 226L718 225L718 217L704 178L668 182L666 184L658 183L649 177L648 173L649 171L660 171L660 166L655 166L645 159L609 161L607 163L595 159L597 145L591 138L592 131L590 129L583 133L577 133L574 130L569 131L567 134L564 133L548 137L547 136L533 138L530 142L530 145L525 146L526 149L512 150L504 155L487 157L477 162L477 164L475 165L455 167L447 171L446 170L443 172L438 172L422 180L420 179L414 182L382 189L379 191L379 189L372 190L365 188L362 190L365 193L361 196L362 197L354 199L355 201L348 202L348 206L344 210L339 211L335 208L330 210L318 209L316 211L316 217L318 220L322 221L319 227L332 239L338 240L339 232L354 230L353 298L359 299L359 301L366 301L384 312L386 315L385 321L389 322L393 327L397 325L404 327L407 332L409 344L412 346L414 350L414 358L423 363L423 369L425 372L424 376L426 379L417 380L414 378L409 380L409 384L401 385L400 389L396 391L386 390L380 395L378 399L373 401L372 404L372 409L375 413L372 414L370 420L372 420L373 428L380 428L380 431L382 432L389 431L400 435L400 445L402 446L399 458L404 461L401 467L406 470L405 476L407 477L407 484L404 485L400 483L395 483L390 491L384 493L380 491L377 485L366 479L358 480L354 478L350 480L328 476L318 471L318 467L311 466L310 463L306 463L309 465L308 470L307 474L300 480L301 487L293 485L287 487L278 484L273 489L262 492L255 491L253 489L252 492L255 495L255 500L253 502L254 504L258 506L260 505L264 508L263 509L265 511L270 510L275 512L286 510L288 512L285 517L286 521L283 522L283 532L281 534L285 541L280 541L279 546L279 550L285 553L283 553L277 560L275 559L270 563L261 565L260 566L262 569L260 574L263 576L256 581L258 582L262 591L264 593L268 593L269 595L266 614L268 617L273 619L279 617L280 615L283 617L287 615L290 617L289 621L292 622L292 626L294 627L290 629L288 632L289 634L285 634L282 636L281 639L281 644L285 647L288 647L286 654L289 656L290 671L288 673L294 679L294 681L290 684L291 688L290 695L288 696L289 698L284 700L284 703L278 703L274 708L275 710L273 711L278 721L285 727L287 732L291 731L297 738L300 739L297 743L298 745L305 747L305 762L308 766L313 768L314 775L327 778L339 795L343 798L350 797L370 811L373 810L379 814L386 813L388 817L390 813L398 813L400 815L404 814L409 818L412 814L418 811L436 817L437 819L439 818L439 816L443 814L446 815L448 818L447 819L450 822L458 825L459 827L465 829L468 832L473 831L475 837L479 836L478 838L484 845L490 844L490 842L497 841L501 838L502 840L507 840L509 845L506 847L506 853L508 855L515 855L515 853L519 854L521 853L520 851L525 853L529 851L532 854L543 854L546 856L549 855L551 851L560 856L563 855L568 859L568 857L576 857L579 854L581 855L581 858L583 859L585 866L594 864L595 862L601 863L603 867L607 867L607 871L610 872L614 877L620 873L622 880L625 880L626 883L630 882L636 877L638 872L645 872L654 875L654 878L658 883L662 884L666 882L671 886L673 886L675 883L683 887L684 885L687 885L686 882L688 878L697 880L697 878L704 877L704 873L706 870L710 873L714 868L714 870L719 869L722 866L724 866L726 861L740 874L739 877L742 877L744 882L748 884L751 883L753 889L761 889L768 893L781 891L782 895L785 896L770 899L768 904L771 906L777 904L780 902L781 899L783 899L787 915L790 918L795 918L794 915L797 914L800 917L802 927L799 930L802 933L795 935L794 938L798 943L801 952L807 958L808 961L814 961L814 959L816 959L817 957L828 959L832 961L836 968L839 965L838 962L843 953L851 954L851 957L856 963L866 967L867 977L871 977L873 974L872 971L875 970L875 966L872 962L873 961L868 958L869 951L871 951L872 947L869 944L872 944L875 941L879 943L888 942L889 950L894 958L904 965L908 962L912 965L913 963L921 969L923 969L924 966L927 966L928 962L922 953L921 949L924 948L926 945L921 940L920 934L918 932L925 932L929 934L931 938L931 934L933 934L934 932L938 935L940 933L937 929L939 927L944 927L946 929L952 930L955 929L959 931L960 928L963 929L964 927L962 924L963 922L966 926L971 926L970 923L972 920L968 919L967 914L970 902L972 901L974 902L974 904L981 902L981 895L978 888L974 887L979 880L973 876L974 874L976 873L977 875L984 871L985 874L989 877L1010 877L1007 877L998 868L993 867L982 858L982 855L978 850L978 840L977 838L975 838L977 831L991 827L989 825L992 822L992 820L987 810L991 804L996 802L1001 788L1005 789L1005 787L1007 787L1012 781L1005 779L1004 777L998 777L996 775L993 775L990 769L991 763L984 763L981 760L980 757L983 752L981 747L982 744L977 734L979 733L979 729L985 729L989 726L991 727L998 724L1001 726L1003 722L1003 715L1006 715L1007 713L1004 704L1015 698L1016 695L1019 694L1029 696L1037 703L1043 703L1053 708L1066 706L1071 707L1070 711L1073 714L1074 718L1074 721L1071 724L1073 726L1073 729L1071 731L1074 734L1076 733L1079 742L1087 746L1088 750L1094 755L1090 757L1094 761L1093 766L1102 774L1101 781L1105 786L1105 793L1103 796L1108 797L1107 802L1113 810L1122 813L1122 815L1127 817L1134 817L1134 819L1136 819L1137 821L1142 821L1145 827L1147 828L1146 831L1148 831L1150 839L1155 839L1156 837L1159 837L1165 839L1166 841L1174 842L1180 850L1183 849L1184 851L1189 852L1191 855L1193 855L1192 854L1197 839L1196 831L1203 832L1206 823L1205 821L1207 821L1211 827L1212 832L1220 834L1219 837L1224 838L1224 841L1226 841L1229 856L1224 862L1226 863L1226 865L1233 866L1235 869L1238 856L1247 856L1253 852L1251 858L1252 859L1254 855L1257 859L1259 859L1266 872L1277 877L1276 869L1278 866L1280 868L1282 867L1279 862L1285 864L1286 862L1287 865L1289 863L1301 869L1314 860L1318 861L1317 865L1325 860L1328 856L1329 845L1323 837L1319 836L1319 827L1324 828L1324 821L1320 817L1323 815L1321 812L1322 810L1320 810L1318 806L1319 802L1324 797L1334 797L1342 809L1342 803L1344 801L1351 802L1365 815L1367 808L1370 806L1369 804L1372 803L1375 797L1372 793L1369 794L1366 791L1368 784L1371 779L1376 778L1378 772L1378 768L1376 768L1374 772L1364 771L1362 757L1360 752L1358 753L1357 750L1346 752L1346 754L1342 756L1339 754L1331 753L1329 751L1327 753L1322 754L1322 747L1324 745L1325 740L1317 732L1315 733L1312 732L1311 729L1307 729L1298 713L1296 712L1293 704L1286 697L1290 690L1289 688L1291 682L1295 680L1298 675L1303 675L1314 681L1329 681L1328 684L1337 689L1351 693L1352 695L1358 694L1358 696L1360 695L1364 697L1364 699L1367 700L1366 703L1368 705L1371 704L1372 707L1374 706L1374 708L1377 703L1384 703L1386 700L1387 702L1394 705L1395 698L1399 699L1400 692L1404 691L1404 686L1406 685L1412 687L1415 678L1422 678L1414 668L1414 664L1412 661L1407 658L1396 656L1392 652L1391 620L1397 617L1404 619L1403 616L1407 608L1413 605L1414 603L1418 602L1419 600L1424 600L1430 588L1435 587L1432 577L1424 572L1427 571L1427 568L1424 563L1425 559L1427 558L1435 561L1439 558L1439 553L1440 554L1444 546L1444 541L1452 546L1462 547L1466 551L1470 547L1465 548L1466 546L1472 544L1469 541L1468 533L1466 533L1463 528L1461 520L1463 515L1466 515L1470 510L1476 512L1479 511L1484 514L1484 503L1487 495L1485 492L1486 490L1480 487L1479 485L1484 483L1488 473L1491 471L1496 471L1491 468L1492 466L1482 461L1480 457L1475 457L1473 450L1468 442L1470 438L1465 431L1468 430L1463 427L1464 425L1461 425L1456 421L1453 414L1454 411L1456 412L1461 407L1464 408L1459 401L1452 396L1446 388L1444 388L1444 386L1439 385L1444 379L1444 375zM1475 456L1474 453z" id="青海省"/><path class="leaflet-interactive" stroke="#333" stroke-opacity="1" stroke-width="1" stroke-linecap="round" stroke-linejoin="round" stroke-dasharray="1,6" fill="#eee" fill-opacity="0.5" fill-rule="evenodd" d="M1300 411L1303 420L1306 424L1307 431L1309 434L1308 435L1313 438L1315 444L1317 445L1320 451L1324 452L1325 456L1332 460L1342 450L1344 452L1347 452L1349 455L1357 458L1362 458L1362 463L1366 464L1368 468L1372 466L1372 463L1374 463L1375 461L1382 461L1386 451L1385 445L1387 443L1386 441L1389 438L1388 434L1390 430L1387 425L1380 419L1379 420L1378 412L1380 405L1379 403L1381 390L1383 389L1385 377L1388 376L1388 367L1390 367L1390 364L1380 356L1377 356L1375 353L1364 353L1363 351L1356 350L1356 344L1337 341L1333 337L1327 339L1312 336L1304 330L1305 328L1303 328L1299 332L1297 332L1297 338L1295 341L1298 343L1304 354L1308 353L1312 356L1315 355L1319 357L1323 367L1325 369L1328 369L1329 373L1332 375L1331 376L1334 381L1334 392L1332 393L1328 391L1315 404L1309 406L1304 402L1299 404L1300 407z" id="西宁市"/><path class="leaflet-interactive" stroke="#333" stroke-opacity="1" stroke-width="1" stroke-linecap="round" stroke-linejoin="round" stroke-dasharray="1,6" fill="#eee" fill-opacity="0.5" fill-rule="evenodd" d="M1439 556L1439 553L1440 554L1444 546L1444 541L1452 546L1462 547L1466 551L1470 547L1465 548L1466 546L1472 544L1469 541L1468 533L1466 533L1463 528L1461 520L1462 517L1463 515L1466 515L1470 510L1476 512L1479 511L1484 514L1484 503L1487 495L1485 492L1486 490L1480 487L1479 485L1484 483L1488 473L1491 471L1496 471L1491 468L1492 466L1482 461L1480 457L1475 457L1473 450L1468 442L1470 438L1465 431L1468 430L1463 427L1464 425L1461 425L1454 418L1454 411L1456 412L1461 407L1464 408L1459 401L1452 396L1446 388L1444 388L1444 386L1439 385L1444 379L1443 372L1434 369L1416 372L1413 375L1402 370L1399 370L1390 364L1390 367L1388 367L1388 376L1385 377L1383 389L1381 390L1379 403L1380 405L1378 412L1379 420L1380 419L1387 425L1390 430L1388 434L1389 438L1386 441L1386 451L1382 461L1375 461L1374 463L1372 463L1372 466L1368 468L1368 476L1373 476L1375 478L1376 475L1376 478L1379 478L1380 481L1388 482L1388 484L1390 484L1389 486L1394 488L1394 492L1396 491L1397 494L1400 495L1402 500L1406 501L1402 503L1403 505L1408 505L1409 509L1405 510L1407 514L1406 515L1411 523L1410 524L1414 525L1412 526L1413 529L1418 527L1419 533L1423 537L1430 538L1437 546L1437 552L1435 553L1436 555zM1475 456L1474 453z" id="海东市"/><path class="leaflet-interactive" stroke="#333" stroke-opacity="1" stroke-width="1" stroke-linecap="round" stroke-linejoin="round" stroke-dasharray="1,6" fill="#eee" fill-opacity="0.5" fill-rule="evenodd" d="M1390 364L1399 370L1402 370L1413 375L1416 372L1434 369L1443 372L1454 369L1457 370L1453 361L1450 361L1447 356L1443 356L1440 353L1440 350L1436 347L1437 346L1429 342L1425 339L1426 337L1416 333L1414 329L1408 326L1410 319L1408 315L1404 314L1405 313L1401 309L1403 306L1398 298L1393 298L1387 303L1386 306L1381 306L1381 303L1379 301L1367 297L1368 295L1362 286L1348 282L1342 287L1340 291L1333 285L1331 286L1322 282L1317 273L1314 273L1304 265L1300 267L1298 265L1297 261L1300 257L1300 249L1302 248L1299 246L1295 249L1291 248L1285 239L1281 237L1279 238L1273 236L1270 239L1269 237L1266 238L1264 235L1261 235L1260 233L1258 236L1256 236L1256 232L1254 231L1252 233L1245 229L1246 227L1243 222L1240 224L1238 215L1231 213L1230 211L1224 209L1222 206L1216 212L1219 215L1218 216L1225 219L1227 226L1231 229L1233 241L1228 240L1227 237L1211 227L1201 224L1185 215L1184 212L1178 209L1173 203L1172 197L1170 195L1166 196L1163 189L1159 186L1158 183L1149 176L1145 175L1138 167L1131 162L1131 160L1135 157L1130 153L1121 152L1116 149L1115 146L1109 143L1108 140L1103 140L1101 144L1098 145L1095 151L1090 153L1091 155L1088 158L1082 155L1076 156L1073 153L1074 151L1071 150L1069 147L1060 146L1059 156L1056 160L1057 163L1043 175L1047 181L1048 186L1051 189L1057 190L1059 192L1059 190L1061 190L1072 197L1083 199L1085 202L1092 206L1099 206L1101 210L1114 212L1120 215L1124 221L1121 221L1117 224L1117 226L1120 229L1117 232L1120 235L1125 234L1129 237L1148 229L1148 232L1151 235L1158 238L1171 238L1173 242L1178 243L1178 254L1184 258L1188 258L1185 261L1181 260L1176 263L1165 265L1163 264L1158 269L1161 273L1159 275L1165 278L1169 284L1171 285L1172 283L1180 285L1185 288L1184 295L1188 299L1189 303L1188 305L1183 306L1179 311L1176 311L1174 313L1175 317L1171 319L1167 326L1169 334L1163 339L1163 344L1165 345L1164 360L1167 361L1167 363L1183 371L1188 376L1193 377L1193 379L1195 379L1202 385L1265 402L1280 407L1282 409L1289 409L1295 406L1300 410L1299 404L1304 402L1309 406L1315 404L1328 391L1332 393L1334 392L1334 381L1332 379L1332 375L1329 373L1328 369L1325 369L1323 367L1319 357L1315 355L1312 356L1308 353L1304 354L1301 351L1298 343L1295 341L1297 338L1297 332L1299 332L1303 328L1305 328L1304 330L1312 336L1330 339L1333 337L1337 341L1356 344L1356 350L1359 349L1364 353L1375 353L1388 363z" id="海北藏族自治州"/><path class="leaflet-interactive" stroke="#333" stroke-opacity="1" stroke-width="1" stroke-linecap="round" stroke-linejoin="round" stroke-dasharray="1,6" fill="#eee" fill-opacity="0.5" fill-rule="evenodd" d="M1303 675L1314 681L1329 681L1328 684L1337 689L1351 693L1352 695L1358 694L1358 696L1360 695L1364 697L1364 699L1367 700L1366 703L1368 705L1371 704L1372 707L1374 706L1374 708L1377 703L1384 703L1386 700L1387 702L1394 705L1395 698L1399 699L1400 692L1404 691L1404 686L1406 685L1412 687L1415 678L1422 678L1414 668L1414 664L1412 661L1407 658L1396 656L1392 652L1391 648L1391 620L1397 617L1404 619L1404 613L1410 606L1407 599L1403 598L1402 591L1400 590L1400 588L1403 586L1402 582L1398 578L1397 573L1392 569L1391 572L1388 573L1386 578L1380 578L1376 582L1374 578L1357 578L1353 582L1349 582L1348 578L1346 578L1343 580L1345 586L1340 587L1337 575L1344 574L1343 569L1334 565L1329 565L1322 561L1304 562L1293 558L1291 560L1279 560L1280 565L1290 569L1290 571L1294 570L1300 574L1296 579L1280 590L1280 597L1290 606L1296 606L1300 608L1304 614L1311 616L1310 617L1312 619L1318 619L1321 625L1319 628L1315 628L1316 637L1313 638L1313 642L1311 645L1307 646L1304 644L1297 644L1300 654L1302 657L1305 657L1304 670zM1357 578L1374 578L1376 582L1380 578L1386 578L1388 573L1392 569L1397 573L1398 578L1402 582L1403 586L1400 588L1400 590L1402 591L1403 598L1407 599L1410 605L1413 605L1419 600L1424 600L1430 588L1435 587L1432 577L1424 572L1427 571L1427 568L1424 563L1425 559L1427 558L1435 561L1439 558L1439 556L1435 553L1437 552L1437 546L1435 546L1430 538L1423 537L1419 533L1418 527L1413 529L1412 526L1414 525L1410 524L1411 523L1406 515L1407 514L1405 510L1409 509L1408 505L1403 505L1402 503L1406 501L1402 500L1400 495L1397 494L1396 491L1394 492L1394 488L1389 486L1390 484L1388 484L1388 482L1380 481L1379 478L1376 478L1376 475L1375 478L1373 476L1366 477L1365 481L1367 488L1366 495L1368 496L1369 503L1374 505L1368 515L1368 520L1370 522L1377 523L1377 530L1370 539L1371 541L1367 546L1368 548L1361 551L1360 550L1356 554L1353 552L1350 554L1345 552L1344 550L1343 551L1343 556L1349 562L1351 567L1343 569L1344 574L1349 575L1353 572L1353 570L1357 572L1356 574z" id="黄南藏族自治州"/><path class="leaflet-interactive" stroke="#333" stroke-opacity="1" stroke-width="1" stroke-linecap="round" stroke-linejoin="round" stroke-dasharray="1,6" fill="#eee" fill-opacity="0.5" fill-rule="evenodd" d="M1300 411L1295 406L1289 409L1282 409L1280 407L1265 402L1202 385L1195 379L1193 379L1193 377L1188 376L1183 371L1175 368L1172 365L1159 361L1158 366L1154 367L1150 371L1146 384L1143 386L1139 385L1149 392L1152 398L1160 404L1164 409L1166 417L1156 424L1118 440L1121 447L1124 448L1131 458L1129 468L1125 475L1119 477L1122 480L1123 485L1127 485L1126 488L1129 489L1132 493L1132 498L1136 504L1136 515L1140 518L1144 525L1144 530L1139 537L1152 543L1156 549L1149 553L1145 553L1145 556L1151 557L1154 560L1152 564L1144 569L1142 576L1149 583L1157 595L1159 595L1161 600L1169 610L1176 611L1179 613L1185 613L1186 616L1190 617L1192 621L1198 623L1199 625L1205 624L1212 626L1213 628L1218 628L1219 626L1221 627L1226 619L1239 618L1243 616L1243 618L1245 618L1246 621L1245 623L1249 626L1259 627L1267 635L1270 636L1271 639L1275 636L1275 638L1280 643L1286 643L1288 640L1294 637L1296 639L1297 644L1304 644L1307 646L1311 645L1313 642L1313 638L1316 637L1315 628L1319 628L1321 625L1319 619L1312 619L1310 617L1311 616L1304 614L1300 608L1296 606L1290 606L1280 597L1280 590L1296 579L1300 574L1294 570L1290 571L1290 569L1283 568L1280 565L1279 561L1281 559L1291 560L1293 558L1304 562L1322 561L1324 563L1334 565L1341 569L1347 569L1351 567L1349 562L1343 556L1343 551L1344 550L1345 552L1350 554L1352 552L1356 554L1360 550L1361 551L1368 548L1367 546L1371 541L1370 539L1376 532L1378 526L1376 525L1377 523L1370 522L1368 520L1368 515L1374 505L1369 503L1368 496L1366 495L1367 488L1365 481L1369 471L1366 464L1362 463L1362 458L1357 458L1349 455L1347 452L1344 452L1342 450L1332 460L1325 456L1324 452L1320 451L1317 447L1313 438L1308 435L1309 434L1307 431L1306 424L1300 412zM1344 574L1338 575L1340 587L1345 586L1343 580L1346 578L1348 578L1349 582L1353 582L1357 578L1356 571L1353 570L1353 572L1349 575L1346 574z" id="海南藏族自治州"/><path class="leaflet-interactive" stroke="#333" stroke-opacity="1" stroke-width="1" stroke-linecap="round" stroke-linejoin="round" stroke-dasharray="1,6" fill="#eee" fill-opacity="0.5" fill-rule="evenodd" d="M1004 704L1015 698L1016 695L1024 694L1029 696L1039 704L1043 703L1053 708L1066 706L1071 707L1070 711L1073 714L1074 718L1074 721L1071 724L1073 726L1073 729L1071 731L1074 734L1076 733L1079 742L1087 746L1088 750L1094 755L1090 757L1094 761L1093 766L1102 774L1101 781L1105 786L1105 793L1103 796L1108 797L1107 802L1113 810L1122 813L1122 815L1127 817L1134 817L1134 819L1136 819L1137 821L1142 821L1145 827L1147 828L1146 831L1148 831L1150 839L1155 839L1156 837L1159 837L1165 839L1166 841L1174 842L1180 850L1183 849L1184 851L1189 852L1191 855L1193 855L1192 854L1197 839L1196 831L1203 832L1206 823L1205 821L1207 821L1211 827L1212 832L1220 834L1219 837L1224 838L1224 841L1226 841L1229 856L1224 862L1226 863L1226 865L1233 866L1235 869L1238 856L1247 856L1253 852L1251 858L1252 859L1254 855L1257 859L1259 859L1264 870L1275 877L1277 877L1277 867L1282 867L1279 862L1285 864L1286 862L1287 865L1289 863L1301 869L1314 860L1318 861L1317 865L1319 863L1322 863L1328 856L1329 845L1323 837L1319 836L1319 827L1324 828L1324 821L1320 817L1323 815L1321 812L1322 810L1320 810L1318 806L1319 802L1324 797L1334 797L1342 809L1342 803L1344 801L1351 802L1365 815L1367 808L1370 806L1369 804L1372 803L1375 797L1372 793L1369 794L1366 791L1370 780L1376 778L1378 768L1376 768L1374 772L1365 772L1362 757L1360 752L1358 753L1357 750L1346 752L1346 754L1342 756L1339 754L1331 753L1329 751L1327 753L1322 754L1322 747L1324 745L1325 740L1317 732L1315 733L1312 732L1311 729L1307 729L1298 713L1296 712L1293 704L1286 697L1290 690L1289 688L1291 682L1295 680L1298 675L1303 675L1305 668L1305 657L1302 657L1300 654L1296 639L1294 637L1288 640L1286 643L1280 643L1275 636L1271 639L1270 636L1267 635L1259 627L1249 626L1245 623L1246 621L1245 618L1243 618L1243 616L1239 618L1226 619L1221 627L1219 626L1218 628L1213 628L1212 626L1205 624L1199 625L1198 623L1192 621L1190 617L1186 616L1185 613L1179 613L1176 611L1169 610L1165 606L1159 595L1157 595L1156 591L1142 576L1144 569L1152 564L1154 560L1153 558L1145 556L1145 553L1149 553L1156 549L1152 543L1143 538L1142 539L1137 537L1135 540L1132 541L1128 539L1126 541L1117 539L1117 542L1113 543L1109 539L1106 539L1104 540L1103 546L1099 549L1092 551L1088 555L1063 555L1061 553L1062 550L1058 549L1054 554L1055 558L1050 571L1046 569L1044 571L1042 570L1041 574L1040 573L1036 575L1029 574L1027 572L1025 573L1018 570L1013 570L1011 568L1004 567L1004 564L1001 563L999 564L1000 576L997 578L994 576L992 577L981 573L975 573L974 577L977 579L968 590L962 602L963 606L950 616L944 618L945 622L943 626L939 627L937 630L939 634L943 637L944 633L956 637L954 641L950 642L949 644L950 646L961 650L960 659L956 661L959 663L964 662L971 664L975 670L972 671L972 675L974 675L980 681L981 684L986 687L988 694L995 698L998 693L1001 699z" id="果洛藏族自治州"/><path class="leaflet-interactive" stroke="#333" stroke-opacity="1" stroke-width="1" stroke-linecap="round" stroke-linejoin="round" stroke-dasharray="1,6" fill="#eee" fill-opacity="0.5" fill-rule="evenodd" d="M539 855L543 854L546 856L549 855L551 851L560 856L563 855L568 859L568 857L576 857L579 854L581 855L581 858L583 859L585 866L594 864L595 862L601 863L603 867L607 867L607 871L610 872L614 877L620 873L622 880L625 880L626 883L630 882L636 877L638 872L645 872L654 875L654 878L658 883L662 884L666 882L671 886L673 886L675 883L683 887L684 885L687 885L686 882L688 878L697 880L697 878L704 877L704 873L706 870L710 873L714 868L714 870L719 869L722 866L724 866L726 861L740 874L739 877L742 877L744 882L748 884L751 883L753 889L761 889L768 893L781 891L782 895L785 896L770 899L768 904L771 906L777 904L780 902L781 899L783 899L787 915L790 918L795 918L794 915L797 914L800 917L802 927L799 930L802 933L795 935L794 938L798 943L801 952L807 958L808 961L814 961L814 959L816 959L817 957L828 959L832 961L836 968L839 965L838 962L843 953L851 954L851 957L856 963L866 967L867 977L871 977L873 974L872 971L875 970L875 966L872 962L873 961L868 958L869 951L871 951L872 947L869 944L872 944L875 941L879 943L888 942L889 950L894 958L904 965L908 962L912 965L913 963L921 969L923 969L924 966L927 966L928 962L922 953L921 949L924 948L926 945L921 940L920 934L918 932L925 932L929 934L931 938L931 934L933 934L934 932L938 935L940 933L937 929L939 927L944 927L946 929L952 930L955 929L959 931L960 928L963 929L964 927L962 924L963 922L966 926L971 926L970 923L972 920L968 919L967 914L970 902L972 901L974 902L974 904L981 902L981 895L978 888L974 887L979 880L973 876L974 874L976 873L977 875L984 871L985 874L989 877L1010 877L1007 877L998 868L993 867L982 858L982 855L978 850L978 840L977 838L975 838L977 831L991 827L989 825L992 822L992 820L987 810L991 804L996 802L1001 788L1005 789L1005 787L1007 787L1012 781L1005 779L1004 777L998 777L996 775L993 775L990 769L991 763L984 763L981 760L980 757L983 752L981 747L982 744L977 736L977 734L979 733L979 729L985 729L989 726L991 727L998 724L1001 726L1003 722L1003 715L1006 715L1007 713L1006 708L998 693L996 698L992 697L988 694L986 687L981 684L980 681L974 675L972 675L972 671L975 670L971 664L964 662L959 663L956 661L960 659L961 650L950 646L949 644L950 642L954 641L956 637L944 633L943 637L939 634L937 630L939 627L943 626L945 622L944 618L950 616L963 606L962 602L968 590L977 580L974 577L975 573L972 573L971 569L965 571L963 569L952 567L948 563L947 558L943 554L940 552L938 554L937 551L934 553L929 549L924 550L917 543L917 541L914 540L905 542L904 539L892 535L891 536L884 534L883 536L879 534L874 534L873 536L869 536L864 534L863 537L859 538L857 544L850 547L847 543L847 540L842 535L829 536L828 534L822 533L805 533L801 539L797 540L794 536L784 534L780 535L777 534L776 531L775 533L777 535L774 536L775 542L772 542L773 547L771 549L769 546L752 541L746 542L744 538L742 540L735 539L733 541L716 538L712 539L710 537L705 538L699 535L696 536L693 533L690 534L688 532L684 532L681 535L676 535L664 527L656 527L650 525L648 522L636 522L628 519L626 522L620 520L603 520L600 518L587 516L585 512L581 511L579 513L571 512L564 509L542 508L529 506L525 504L520 506L517 504L512 505L502 503L491 499L485 494L478 492L467 494L459 490L450 488L447 484L449 477L440 484L433 487L426 486L408 477L407 484L404 485L400 483L395 483L390 491L384 493L380 491L377 485L366 479L358 480L354 478L350 480L328 476L318 471L318 467L311 466L310 463L306 463L309 465L308 470L307 474L300 480L301 487L293 485L287 487L278 484L273 489L262 492L255 491L253 489L252 492L255 495L255 500L253 502L254 504L258 506L260 505L264 508L263 509L265 511L270 510L275 512L286 510L288 512L285 517L286 521L283 522L283 532L281 534L285 541L280 541L279 546L279 550L285 553L283 553L277 560L275 559L270 563L261 565L260 566L262 569L260 574L263 576L256 581L258 582L262 591L264 593L268 593L269 595L266 614L268 617L273 619L279 617L280 615L283 617L287 615L291 618L294 617L297 621L303 617L308 616L314 617L317 621L321 620L324 614L326 613L334 615L337 613L344 613L364 615L366 618L371 617L372 619L377 618L390 625L393 633L397 635L399 632L402 633L402 629L406 629L409 631L418 628L421 630L426 630L429 633L438 637L451 640L459 644L463 643L466 648L471 648L477 652L484 653L485 656L482 660L483 663L509 675L533 675L535 671L538 673L537 675L547 698L547 703L553 709L563 709L571 707L567 712L559 713L552 723L556 726L556 737L558 747L557 749L561 751L559 757L562 759L562 764L566 768L566 770L560 775L557 774L555 776L552 774L548 781L548 784L543 788L543 793L553 799L554 801L553 805L549 810L555 819L552 823L547 836L542 840L541 853z" id="玉树藏族自治州"/><path class="leaflet-interactive" stroke="#333" stroke-opacity="1" stroke-width="1" stroke-linecap="round" stroke-linejoin="round" stroke-dasharray="1,6" fill="#eee" fill-opacity="0.5" fill-rule="evenodd" d="M1043 175L1035 167L1026 164L1019 158L1007 155L1006 150L989 141L985 136L982 136L980 133L977 134L974 131L958 127L940 127L944 134L940 139L938 161L943 164L942 175L945 179L944 185L945 187L948 188L948 198L940 202L924 196L925 200L922 202L925 205L925 207L916 208L913 210L917 213L916 218L909 225L910 231L912 232L913 240L894 234L887 234L883 238L880 245L881 248L876 250L875 247L873 247L872 249L861 245L859 245L858 247L856 246L842 233L839 234L836 226L827 223L825 220L808 232L805 230L802 233L800 230L798 232L794 230L792 231L790 229L785 232L782 228L780 228L778 225L779 223L774 221L772 218L768 220L765 218L764 219L763 217L752 218L749 221L744 222L730 222L720 226L718 225L718 217L704 178L668 182L666 184L658 183L649 177L648 173L649 171L660 171L660 166L655 166L645 159L609 161L607 163L595 159L597 145L591 138L592 131L590 129L583 133L577 133L574 130L569 131L567 134L564 133L548 137L547 136L533 138L530 142L530 145L525 146L526 149L512 150L504 155L487 157L477 162L477 164L475 165L455 167L447 171L446 170L443 172L438 172L425 179L420 179L407 184L394 186L379 191L379 189L372 190L365 188L362 190L365 193L361 196L362 197L354 199L355 201L348 202L348 206L344 210L339 211L335 208L330 210L318 209L316 211L316 217L318 220L322 221L319 227L332 239L338 240L339 232L354 230L353 298L359 299L359 301L366 301L384 312L386 315L385 321L389 322L393 327L397 325L404 327L407 332L409 344L412 346L414 350L414 358L423 363L423 369L425 372L424 376L426 379L417 380L414 378L409 380L409 384L401 385L400 389L396 391L384 391L378 399L373 401L372 409L375 413L372 414L370 417L370 420L372 420L373 423L373 428L380 428L380 431L382 432L389 431L400 435L400 445L402 446L399 458L404 461L401 467L406 470L405 476L410 479L418 481L426 486L433 487L445 481L449 477L447 484L450 488L459 490L467 494L478 492L485 494L491 499L502 503L512 505L517 504L520 506L525 504L529 506L542 508L564 509L571 512L579 513L581 511L585 512L587 516L600 518L603 520L620 520L626 522L628 519L636 522L648 522L650 525L656 527L664 527L676 535L681 535L684 532L688 532L690 534L694 533L696 536L699 535L705 538L710 537L712 539L729 539L733 541L740 539L742 540L744 538L746 542L752 541L759 543L762 545L769 546L770 549L773 547L772 542L775 542L774 536L777 535L775 533L776 531L777 534L780 535L784 534L794 536L797 540L801 539L805 533L822 533L828 534L829 536L842 535L845 537L850 547L857 544L859 538L863 537L864 534L869 536L873 536L874 534L879 534L883 536L884 534L891 536L892 535L904 539L905 542L914 540L917 541L917 543L924 550L929 549L934 553L937 551L938 554L940 552L947 558L948 563L952 567L963 569L965 571L968 571L970 569L972 573L977 572L992 577L994 576L997 578L1000 576L999 564L1001 563L1004 564L1004 567L1011 568L1013 570L1018 570L1025 573L1027 572L1029 574L1041 574L1042 570L1044 571L1046 569L1050 571L1055 558L1054 554L1058 549L1062 550L1061 553L1063 555L1088 555L1092 551L1099 549L1103 546L1104 541L1106 539L1109 539L1113 543L1117 542L1117 539L1123 541L1126 541L1128 539L1132 541L1139 537L1144 530L1144 525L1142 521L1136 515L1137 510L1135 508L1136 504L1132 498L1133 495L1129 489L1126 488L1127 485L1123 485L1122 480L1119 478L1125 475L1129 468L1131 458L1124 448L1121 447L1118 440L1156 424L1166 417L1164 409L1160 404L1152 398L1149 392L1139 385L1143 386L1146 384L1151 369L1157 367L1159 361L1167 363L1167 361L1164 360L1165 345L1163 344L1163 339L1169 334L1167 326L1171 319L1175 317L1174 313L1176 311L1179 311L1183 306L1188 305L1189 303L1188 299L1184 295L1185 288L1176 284L1169 284L1165 278L1159 275L1161 273L1158 270L1160 266L1163 264L1165 265L1176 263L1181 260L1185 261L1188 258L1184 258L1178 254L1178 243L1173 242L1171 238L1158 238L1151 235L1148 232L1148 229L1129 237L1125 234L1120 235L1117 233L1120 229L1117 226L1117 224L1123 221L1120 215L1114 212L1101 210L1099 206L1092 206L1085 202L1083 199L1072 197L1061 190L1059 190L1059 192L1057 190L1051 189L1048 186L1046 179L1044 178zM539 855L541 853L542 840L547 836L552 823L555 819L549 811L554 801L553 799L543 793L543 788L548 784L548 781L552 774L555 776L557 774L560 775L566 770L566 768L562 764L562 759L559 757L561 751L557 749L558 747L556 737L556 726L552 723L559 713L564 713L571 707L563 709L551 708L547 703L547 698L537 675L538 673L535 671L533 675L509 675L483 663L482 660L485 656L484 653L477 652L472 648L466 648L463 643L459 644L451 640L438 637L429 633L426 630L421 630L418 628L409 631L406 629L402 629L402 633L399 632L397 635L393 633L390 625L377 618L366 618L364 615L344 613L337 613L334 615L326 613L324 614L321 620L317 621L314 617L308 616L303 617L297 621L294 617L290 617L289 621L292 622L292 626L294 627L290 629L288 632L289 634L285 634L282 636L281 644L285 647L288 647L286 654L289 656L290 671L288 673L294 679L294 681L290 684L291 688L290 695L288 696L289 698L284 700L284 703L278 703L274 708L275 710L273 711L278 721L285 727L287 732L291 731L297 738L300 739L297 743L298 745L305 747L305 762L308 766L313 768L314 775L327 778L339 795L343 798L350 797L370 811L373 810L379 814L386 813L388 817L390 813L398 813L400 815L404 814L409 818L412 814L418 811L436 817L437 819L439 818L439 816L443 814L446 815L448 818L447 819L450 822L458 825L459 827L465 829L468 832L473 831L475 837L479 836L478 838L484 845L490 844L490 842L497 841L501 838L502 840L507 840L509 843L509 845L506 847L506 853L508 855L515 855L515 853L519 854L521 853L520 851L525 853L529 851L532 854L536 855z" id="海西蒙古族藏族自治州"/></g></svg>