<svg xmlns="http://www.w3.org/2000/svg" pointer-events="none" class="leaflet-zoom-animated" width="1976" height="1264" viewBox="-165 -105 1976 1264" style="transform: translate3d(-165px, -105px, 0px);"><g><path class="leaflet-interactive" stroke="black" stroke-opacity="1" stroke-width="2" stroke-linecap="round" stroke-linejoin="round" fill="#fff" fill-opacity="0.2" fill-rule="evenodd" d="M1023 725L1025 724L1026 726L1030 727L1027 729L1027 731L1031 733L1034 738L1037 738L1040 740L1041 743L1051 748L1054 746L1057 748L1058 752L1066 752L1070 755L1075 753L1081 755L1091 754L1092 757L1100 758L1109 753L1118 757L1121 763L1133 765L1138 763L1153 767L1157 766L1161 769L1164 767L1174 772L1173 779L1176 784L1175 787L1183 785L1184 788L1190 791L1194 791L1198 796L1201 794L1209 796L1211 795L1215 799L1221 801L1226 796L1230 799L1233 805L1241 805L1245 809L1245 811L1253 817L1263 820L1266 826L1274 829L1291 842L1295 844L1304 845L1324 857L1336 859L1346 851L1364 848L1372 849L1384 844L1394 842L1400 843L1404 846L1410 847L1418 851L1420 851L1422 847L1431 848L1441 846L1444 843L1459 844L1459 839L1456 836L1456 833L1450 827L1451 826L1449 820L1443 821L1435 813L1431 806L1424 806L1413 797L1410 791L1411 789L1402 782L1404 777L1395 772L1389 771L1382 766L1382 764L1373 759L1370 754L1371 750L1364 750L1358 744L1351 741L1346 741L1342 738L1342 733L1338 727L1329 721L1320 720L1320 717L1325 710L1324 705L1328 700L1321 694L1320 688L1313 688L1310 679L1304 675L1303 673L1306 669L1306 666L1303 660L1303 656L1299 652L1298 648L1294 643L1289 641L1286 642L1283 640L1280 641L1274 644L1274 646L1270 649L1267 649L1261 655L1258 663L1256 661L1246 665L1246 656L1242 654L1240 651L1206 639L1209 632L1206 627L1201 625L1196 614L1190 608L1180 605L1178 606L1165 598L1161 600L1157 599L1153 595L1150 595L1149 598L1142 603L1139 608L1135 610L1133 617L1130 620L1128 620L1126 617L1117 614L1114 609L1109 608L1108 605L1104 607L1098 603L1089 602L1075 592L1075 586L1069 579L1066 578L1066 575L1063 570L1060 572L1056 571L1045 560L1037 557L1031 550L1027 548L1022 551L1018 549L1016 552L1009 548L1010 542L1007 536L1009 531L1017 523L1015 510L1017 503L1020 501L1014 493L1011 493L1000 504L991 500L987 493L982 489L980 482L972 474L963 469L959 471L949 467L938 465L932 473L927 470L920 471L913 463L907 463L903 458L901 458L900 463L898 465L891 464L891 454L889 454L888 452L881 456L877 452L872 451L861 445L864 440L862 434L857 428L857 425L855 425L853 428L849 428L846 432L843 429L843 415L841 412L841 407L832 403L822 401L818 395L811 393L808 389L802 391L795 382L786 386L779 399L784 405L786 404L785 410L789 412L790 411L792 413L791 414L793 414L794 416L795 414L799 416L800 419L803 418L804 424L808 428L810 436L808 437L811 438L810 440L811 439L815 443L821 445L822 447L820 451L820 457L822 460L826 479L824 481L820 481L812 477L810 470L804 466L801 460L792 460L779 448L770 448L763 440L756 440L747 435L735 431L720 419L711 417L706 413L694 408L691 405L688 398L672 389L663 377L657 373L654 366L653 352L649 351L642 354L638 354L635 352L630 337L628 334L618 327L615 316L588 295L577 292L556 270L550 267L539 257L537 252L550 241L549 239L543 239L535 231L532 230L525 228L520 231L517 228L505 225L503 222L496 219L492 210L476 202L473 194L456 194L453 203L446 209L439 220L437 220L435 225L422 230L425 237L422 241L418 240L416 245L414 246L406 240L400 238L382 239L374 231L375 225L373 223L367 223L366 217L363 213L342 210L336 214L338 223L336 235L328 243L325 249L325 251L328 252L329 254L328 261L319 267L316 271L307 276L303 283L299 284L295 287L294 290L288 294L293 303L297 303L300 307L300 321L308 328L309 332L327 334L334 341L335 335L340 334L362 352L383 359L401 361L405 364L409 371L418 378L429 381L440 378L445 379L453 393L462 395L484 395L496 398L512 410L517 422L516 425L506 425L504 429L498 433L498 437L500 439L505 440L507 443L506 446L498 453L498 458L507 463L510 463L512 461L516 463L518 461L522 461L527 466L532 468L541 467L553 463L559 457L562 456L564 458L566 451L576 449L579 447L579 445L585 444L588 448L586 453L588 457L595 462L604 465L614 471L632 467L642 471L650 470L652 472L656 484L660 484L663 486L664 482L665 484L672 487L675 499L671 511L671 516L682 521L688 527L699 530L690 535L684 534L677 536L670 541L666 542L650 541L635 546L627 544L619 550L614 559L614 562L623 571L618 575L618 577L644 593L644 602L646 605L650 605L653 599L655 599L664 603L676 605L679 609L692 613L691 618L688 620L690 637L692 640L699 643L701 651L700 659L698 661L690 662L685 665L674 679L668 678L663 680L660 686L662 690L661 694L650 701L641 720L645 738L644 742L638 751L630 754L628 763L629 770L632 772L635 779L635 783L637 785L634 786L632 796L630 797L634 807L632 818L633 820L638 820L638 826L652 829L657 834L659 834L663 839L667 839L673 844L679 845L699 863L704 863L707 866L712 865L713 871L720 871L727 879L733 881L734 884L738 887L942 943L958 949L966 956L972 956L975 954L985 955L1003 947L1007 952L1012 954L1016 958L1015 960L1016 954L1012 946L1012 941L1027 934L1039 942L1042 946L1047 945L1053 941L1059 940L1066 931L1079 921L1083 913L1096 904L1109 909L1112 906L1113 901L1111 892L1108 889L1111 883L1111 877L1107 870L1105 856L1099 852L1093 841L1087 841L1081 836L1077 829L1076 820L1073 817L1071 810L1056 802L1054 802L1051 805L1044 803L1044 801L1038 796L1032 797L1030 795L1027 798L1022 796L1019 792L1018 785L1015 784L1015 778L1011 773L1010 768L1006 764L1004 764L1003 762L1005 761L1007 750L1005 740L1008 736L1012 738L1015 736L1015 734L1020 730L1021 727z" id="海北藏族自治州"/><path class="leaflet-interactive" stroke="#333" stroke-opacity="1" stroke-width="1" stroke-linecap="round" stroke-linejoin="round" stroke-dasharray="1,6" fill="#eee" fill-opacity="0.5" fill-rule="evenodd" d="M1077 594L1076 597L1072 598L1070 600L1070 603L1065 606L1061 615L1065 623L1070 625L1071 630L1079 631L1088 637L1082 641L1080 649L1077 650L1073 655L1076 659L1078 670L1087 675L1086 683L1089 687L1082 686L1077 683L1071 684L1069 683L1069 681L1066 680L1059 683L1054 683L1051 679L1047 680L1039 675L1039 680L1030 690L1027 691L1027 697L1023 702L1022 708L1019 711L1018 716L1020 722L1023 725L1025 724L1026 726L1030 727L1027 729L1027 731L1031 733L1034 738L1040 740L1041 743L1051 748L1054 746L1057 748L1058 752L1066 752L1070 755L1075 753L1081 755L1091 754L1092 757L1102 758L1103 756L1109 753L1118 757L1121 763L1133 765L1138 763L1153 767L1157 766L1161 769L1164 767L1174 772L1173 779L1176 784L1175 787L1183 785L1184 788L1190 791L1194 791L1198 796L1201 794L1209 796L1211 795L1215 799L1221 801L1226 796L1230 799L1233 805L1241 805L1245 809L1245 811L1253 817L1263 820L1266 826L1274 829L1291 842L1295 844L1304 845L1324 857L1336 859L1346 851L1364 848L1372 849L1384 844L1394 842L1400 843L1404 846L1410 847L1418 851L1420 851L1422 847L1431 848L1441 846L1444 843L1459 844L1459 839L1456 836L1456 833L1450 827L1451 826L1449 820L1443 821L1435 813L1431 806L1424 806L1413 797L1410 791L1411 789L1402 782L1404 777L1395 772L1389 771L1382 766L1382 764L1373 759L1370 754L1371 750L1364 750L1358 744L1351 741L1346 741L1342 738L1342 733L1338 727L1329 721L1320 720L1320 717L1325 710L1324 705L1328 700L1321 694L1320 688L1313 688L1310 679L1304 675L1303 673L1306 669L1306 666L1303 660L1303 656L1299 652L1298 648L1294 643L1289 641L1286 642L1283 640L1280 641L1274 644L1274 646L1270 649L1267 649L1261 655L1258 663L1256 661L1246 665L1246 656L1242 654L1240 651L1206 639L1209 632L1206 627L1201 625L1196 614L1190 608L1180 605L1178 606L1165 598L1161 600L1157 599L1153 595L1150 595L1149 598L1142 603L1139 608L1135 610L1133 617L1130 620L1128 620L1126 617L1117 614L1114 609L1109 608L1108 605L1104 607L1098 603L1089 602L1080 595L1078 595z" id="门源回族自治县"/><path class="leaflet-interactive" stroke="#333" stroke-opacity="1" stroke-width="1" stroke-linecap="round" stroke-linejoin="round" stroke-dasharray="1,6" fill="#eee" fill-opacity="0.5" fill-rule="evenodd" d="M1077 594L1075 592L1075 586L1069 579L1066 578L1066 575L1063 570L1060 572L1056 571L1045 560L1037 557L1031 550L1027 548L1022 551L1018 549L1016 552L1009 548L1010 542L1007 536L1009 531L1017 523L1015 510L1017 503L1020 501L1014 493L1011 493L1000 504L991 500L987 493L982 489L980 482L972 474L963 469L959 471L949 467L938 465L932 473L927 470L920 471L913 463L907 463L903 458L901 458L900 463L898 465L891 464L891 454L889 454L888 452L881 456L877 452L872 451L861 445L864 440L862 434L857 428L857 425L855 425L853 428L849 428L846 432L843 429L843 415L841 412L841 407L832 403L822 401L818 395L811 393L808 389L802 391L795 382L786 386L779 399L784 405L786 404L785 410L789 412L790 411L792 413L791 414L793 414L794 416L795 414L799 416L800 419L803 418L804 424L808 428L810 436L808 437L811 438L810 440L811 439L815 443L821 445L822 447L820 451L820 457L826 475L826 479L824 481L820 481L812 477L810 470L804 466L801 460L792 460L779 448L770 448L763 440L756 440L747 435L735 431L720 419L711 417L706 413L694 408L691 405L688 398L672 389L663 377L657 373L654 366L653 352L649 351L642 354L638 354L635 352L630 337L628 334L618 327L615 316L588 295L577 292L556 270L550 267L539 257L537 252L550 241L549 239L543 239L535 231L532 230L525 228L520 231L517 228L505 225L503 222L496 219L492 210L476 202L473 194L456 194L453 203L446 209L439 220L437 220L435 225L422 230L425 237L422 241L418 240L416 245L414 246L406 240L400 238L382 239L374 231L375 225L373 223L367 223L366 217L363 213L346 210L339 211L336 214L338 223L336 235L328 243L325 249L325 251L328 252L329 254L328 261L319 267L316 271L307 276L303 283L299 284L295 287L294 290L288 294L293 303L297 303L300 307L300 321L308 328L309 332L327 334L334 341L335 335L340 334L362 352L383 359L401 361L405 364L409 371L418 378L429 381L440 378L445 379L453 393L462 395L474 394L491 396L506 405L512 410L517 422L516 425L506 425L504 429L498 433L498 437L500 439L505 440L507 443L506 446L498 453L498 458L503 461L507 463L510 463L512 461L516 463L518 461L522 461L527 466L532 468L541 467L553 463L559 457L562 456L564 458L566 451L576 449L579 447L579 445L585 444L588 448L586 453L588 457L599 464L604 465L614 471L632 467L642 471L650 470L652 472L656 484L660 484L663 486L664 482L665 484L671 486L675 499L671 511L671 516L682 521L688 527L698 529L703 533L709 531L725 535L731 541L743 542L750 545L752 548L762 549L781 564L790 564L798 569L798 572L809 576L809 578L817 583L823 590L840 592L844 593L845 595L852 594L854 592L859 593L861 595L866 595L868 598L878 601L879 605L885 607L889 605L892 606L898 614L897 617L903 620L904 624L907 626L911 635L910 641L912 644L912 648L908 654L906 654L906 657L902 657L897 660L895 666L899 668L905 676L917 679L922 686L927 690L938 694L939 696L942 696L946 699L949 699L953 703L953 706L970 705L976 717L982 715L982 717L985 718L987 725L991 726L993 732L1003 740L1005 740L1008 736L1012 738L1015 736L1015 734L1020 730L1023 725L1018 717L1019 711L1022 709L1023 702L1027 697L1027 691L1030 690L1036 684L1039 680L1039 675L1047 680L1051 679L1054 683L1059 683L1066 680L1069 681L1069 683L1071 684L1077 683L1081 686L1089 687L1086 683L1087 675L1078 670L1076 659L1073 655L1077 650L1080 649L1082 641L1087 637L1079 631L1071 630L1070 625L1066 624L1061 616L1065 607L1070 603L1071 598L1076 597z" id="祁连县"/><path class="leaflet-interactive" stroke="#333" stroke-opacity="1" stroke-width="1" stroke-linecap="round" stroke-linejoin="round" stroke-dasharray="1,6" fill="#eee" fill-opacity="0.5" fill-rule="evenodd" d="M1005 740L995 735L991 726L988 725L985 718L982 717L982 715L976 717L970 705L953 706L953 703L949 699L939 696L938 694L927 690L922 686L919 692L916 693L914 699L916 700L922 712L921 722L928 730L928 737L932 748L936 769L938 791L926 799L921 800L910 797L905 804L899 808L897 819L889 832L887 839L878 841L877 843L880 846L880 848L851 919L942 943L958 949L966 956L972 956L975 954L985 955L1003 947L1007 952L1012 954L1016 958L1015 960L1016 954L1012 946L1012 941L1027 934L1039 942L1042 946L1047 945L1053 941L1059 940L1066 931L1079 921L1083 913L1096 904L1106 907L1107 909L1109 909L1112 906L1113 901L1111 892L1108 889L1111 883L1111 877L1107 870L1105 856L1099 852L1093 841L1087 841L1081 836L1077 829L1076 820L1073 817L1070 809L1056 802L1054 802L1051 805L1044 803L1044 801L1038 796L1032 797L1030 795L1027 798L1022 796L1019 792L1018 785L1015 784L1015 778L1011 773L1010 768L1003 762L1005 761L1007 750L1006 742z" id="海晏县"/><path class="leaflet-interactive" stroke="#333" stroke-opacity="1" stroke-width="1" stroke-linecap="round" stroke-linejoin="round" stroke-dasharray="1,6" fill="#eee" fill-opacity="0.5" fill-rule="evenodd" d="M922 686L917 679L905 676L903 672L895 666L896 660L902 657L906 657L906 654L908 654L912 648L912 644L910 641L910 632L907 626L904 624L903 620L897 617L898 614L895 609L889 605L885 607L879 605L878 601L868 598L866 595L861 595L859 593L854 592L852 594L846 595L840 592L823 590L817 583L809 578L809 576L798 572L798 569L790 564L778 563L762 549L752 548L750 545L743 542L731 541L725 535L709 531L703 533L702 531L697 530L690 535L680 535L666 542L650 541L635 546L627 544L619 550L614 559L614 562L623 571L618 575L618 577L644 593L644 602L646 605L650 605L653 599L655 599L664 603L676 605L679 609L692 613L691 618L688 620L690 637L692 640L699 643L701 651L700 659L698 661L690 662L685 665L674 679L668 678L663 680L660 686L662 690L661 694L650 701L641 720L645 738L644 742L638 751L630 754L628 763L629 770L632 772L635 779L635 783L637 785L634 786L632 796L630 797L634 807L632 818L633 820L638 820L638 826L652 829L657 834L659 834L663 839L667 839L673 844L679 845L699 863L704 863L707 866L712 865L713 871L720 871L727 879L733 881L734 884L738 887L851 919L880 848L880 846L877 843L878 841L887 839L888 834L897 819L899 808L910 797L921 800L926 799L938 791L936 769L932 748L928 737L928 730L921 722L922 712L916 700L914 699L916 693L919 692L921 688z" id="刚察县"/></g></svg>